<svg width="64" height="65" viewBox="0 0 64 65" fill="none" xmlns="http://www.w3.org/2000/svg">
<path d="M64 32.4675C64 14.5437 49.664 0 32 0C14.336 0 0 14.5437 0 32.4675C0 42.3394 4.416 51.2362 11.328 57.2081C11.392 57.2731 11.456 57.2731 11.456 57.3381C12.032 57.7931 12.608 58.2481 13.248 58.7031C13.568 58.8981 13.824 59.1541 14.144 59.4141C19.4323 63.0556 25.6748 65.0015 32.064 65C38.4532 65.0015 44.6957 63.0556 49.984 59.4141C50.304 59.2191 50.56 58.9631 50.88 58.7641C51.456 58.3131 52.096 57.8581 52.672 57.4031C52.736 57.3381 52.8 57.3381 52.8 57.2731C59.584 51.2322 64 42.3394 64 32.4675V32.4675ZM32 60.9091C25.984 60.9091 20.48 58.9591 15.936 55.7131C16 55.1931 16.128 54.6772 16.256 54.1572C16.6374 52.7479 17.1967 51.3947 17.92 50.1313C18.624 48.8963 19.456 47.7913 20.48 46.8163C21.44 45.8413 22.592 44.9353 23.744 44.2203C24.96 43.5053 26.24 42.9853 27.648 42.5953C29.067 42.2069 30.5304 42.0115 32 42.0144C36.3626 41.983 40.5649 43.6826 43.712 46.7513C45.184 48.2463 46.336 50.0013 47.168 52.0122C47.616 53.1822 47.936 54.4172 48.128 55.7131C43.4047 59.0856 37.7737 60.8998 32 60.9091ZM22.208 30.8466C21.6441 29.5353 21.3605 28.1174 21.376 26.6866C21.376 25.2606 21.632 23.8306 22.208 22.5306C22.784 21.2306 23.552 20.0647 24.512 19.0897C25.472 18.1147 26.624 17.3388 27.904 16.7538C29.184 16.1688 30.592 15.9087 32 15.9087C33.472 15.9087 34.816 16.1688 36.096 16.7538C37.376 17.3388 38.528 18.1187 39.488 19.0897C40.448 20.0647 41.216 21.2347 41.792 22.5306C42.368 23.8306 42.624 25.2606 42.624 26.6866C42.624 28.1816 42.368 29.5466 41.792 30.8425C41.2361 32.1233 40.4554 33.2906 39.488 34.2875C38.5061 35.2686 37.3568 36.0601 36.096 36.6234C33.4513 37.7273 30.4847 37.7273 27.84 36.6234C26.5792 36.0601 25.4299 35.2686 24.448 34.2875C23.4793 33.3051 22.7172 32.1331 22.208 30.8425V30.8466ZM51.904 52.4022C51.904 52.2722 51.84 52.2072 51.84 52.0772C51.2106 50.0436 50.2828 48.118 49.088 46.3653C47.8921 44.5997 46.4224 43.0425 44.736 41.7544C43.4481 40.7704 42.0521 39.9415 40.576 39.2844C41.2475 38.8344 41.8697 38.3128 42.432 37.7284C43.3862 36.7717 44.2241 35.7025 44.928 34.5434C46.3454 32.1783 47.0775 29.4551 47.04 26.6866C47.0598 24.6371 46.6678 22.6051 45.888 20.7147C45.1181 18.8932 44.0099 17.2394 42.624 15.8438C41.2402 14.4626 39.6115 13.3599 37.824 12.5937C35.9596 11.8032 33.9563 11.4065 31.936 11.4278C29.9155 11.4077 27.9121 11.8058 26.048 12.5978C24.245 13.3623 22.6124 14.4884 21.248 15.9087C19.8882 17.3127 18.8024 18.9655 18.048 20.7797C17.2682 22.6701 16.8762 24.7021 16.896 26.7516C16.896 28.1816 17.088 29.5466 17.472 30.8425C17.856 32.2075 18.368 33.4425 19.072 34.6084C19.712 35.7784 20.608 36.8184 21.568 37.7934C22.144 38.3784 22.784 38.8944 23.488 39.3494C22.0073 40.024 20.6109 40.875 19.328 41.8844C17.664 43.1844 16.192 44.7403 14.976 46.4303C13.769 48.1757 12.8403 50.1033 12.224 52.1422C12.16 52.2722 12.16 52.4022 12.16 52.4672C7.104 47.2712 3.968 40.2594 3.968 32.4675C3.968 16.8188 16.576 4.02594 32 4.02594C47.424 4.02594 60.032 16.8188 60.032 32.4675C60.0236 39.9423 57.1013 47.1097 51.904 52.4022V52.4022Z" fill="#355386"/>
</svg>
